<svg xmlns="http://www.w3.org/2000/svg" xmlns:svg="http://www.w3.org/2000/svg" id="Layer_1" width="344.001" height="344" x="0" y="0" enable-background="new 0 0 306 344.35" version="1.1" viewBox="0 0 344.001 344" xml:space="preserve"><path id="path1-4" d="m 99.039514,0 c -4.20373,0 -8.88428,1.674718 -13.03906,4.375005 -4.155779,2.700277 -7.784849,6.424133 -9.886719,10.519532 L 3.1527938,157.10547 c -4.2037251,8.19191 -4.2037251,21.59714 0,29.78906 L 76.113735,329.10547 C 80.316465,337.29851 90.633054,344 99.039514,344 H 244.96139 c 4.20373,0 8.88428,-1.67667 13.03906,-4.37695 L 172.00045,172 258.0024,339.62305 c 4.15478,-2.69916 7.7839,-6.42219 9.88477,-10.51758 L 340.8481,186.89453 c 4.20374,-8.19192 4.20374,-21.59715 0,-29.78906 L 267.88717,14.894537 C 265.7853,10.798014 262.15623,7.076114 258.00045,4.37695 253.84567,1.677798 249.16512,0 244.96139,0 Z" style="fill:#00599c;fill-opacity:1;stroke-width:1.05974"/><path id="path1-8" style="fill:#fff;fill-opacity:1;stroke-width:1.95359" d="M 71.640629,81.420186 V 197.27956 h 0.04883 a 101.84673,101.84673 0 0 0 50.875001,87.46679 101.84673,101.84673 0 0 0 101.8457,0 101.84673,101.84673 0 0 0 50.875,-87.46679 h 0.0488 V 196.54518 81.420186 h -52.6289 V 196.54518 a 49.217453,49.217453 0 0 1 -24.60938,42.62305 49.217453,49.217453 0 0 1 -49.21679,0 49.217453,49.217453 0 0 1 -24.60938,-42.62305 h -0.002 V 81.420186 Z"/><polygon id="polygon4" fill="#fff" points="232.334 189.175 243.666 189.175 243.666 177.841 255 177.841 255 166.508 243.666 166.508 243.666 155.175 232.334 155.175 232.334 166.508 221 166.508 221 177.841 232.334 177.841" style="fill:#fff;fill-opacity:1" transform="matrix(0,-1.4985337,1.331647,0,-55.789031,469.68329)"/><polygon id="polygon5" fill="#fff" points="274.834 189.175 286.166 189.175 286.166 177.841 297.5 177.841 297.5 166.508 286.166 166.508 286.166 155.175 274.834 155.175 274.834 166.508 263.5 166.508 263.5 177.841 274.834 177.841" style="fill:#fff;fill-opacity:1" transform="matrix(0,-1.4985336,1.3316471,0,-55.789037,469.6833)"/></svg>